<?xml version="1.0" encoding="utf-8"?><svg xmlns="http://www.w3.org/2000/svg" xmlns:xlink="http://www.w3.org/1999/xlink"><symbol viewBox="0 0 348.077 348.077" id="contacts-tel"><path d="M340.273 275.083l-53.755-53.761c-10.707-10.664-28.438-10.34-39.518.744l-27.082 27.076a792.327 792.327 0 0 1-5.344-2.973c-17.102-9.476-40.509-22.464-65.14-47.113-24.704-24.701-37.704-48.144-47.209-65.257-1.003-1.813-1.964-3.561-2.913-5.221l18.176-18.149 8.936-8.947c11.097-11.1 11.403-28.826.721-39.521L73.39 8.194c-10.682-10.68-28.421-10.356-39.518.744l-15.15 15.237.414.411c-5.08 6.482-9.325 13.958-12.484 22.02C3.74 54.28 1.927 61.603 1.098 68.941-6 127.785 20.89 181.564 93.866 254.541c100.875 100.868 182.167 93.248 185.674 92.876 7.638-.913 14.958-2.738 22.397-5.627 7.992-3.122 15.463-7.361 21.941-12.43l.331.294 15.348-15.029c11.074-11.098 11.393-28.83.716-39.542z"/></symbol><symbol viewBox="0 0 139.4 44.7" id="dorohovdesign"><path d="M52.2 19.5V8.1H57c3.6 0 6.1 2.1 6.1 5.7 0 3.5-2.6 5.7-6.1 5.7h-4.8zm7.9-5.7c0-1.8-1.1-3.1-3.1-3.1h-1.9v6.2H57c2 0 3.1-1.4 3.1-3.1m4.1 0c0-3.4 2.6-5.9 6.1-5.9 3.5 0 6.1 2.4 6.1 5.9 0 3.5-2.6 5.9-6.1 5.9-3.5 0-6.1-2.4-6.1-5.9m9.2 0c0-1.9-1.2-3.3-3.1-3.3-1.9 0-3.1 1.4-3.1 3.3 0 1.8 1.2 3.3 3.1 3.3 1.9 0 3.1-1.4 3.1-3.3m11 5.7l-1.9-3.8H81v3.8h-2.9V8.1h5.7c2.5 0 3.9 1.7 3.9 3.8 0 2-1.2 3-2.3 3.4l2.3 4.2h-3.3zm.3-7.6c0-.8-.6-1.2-1.4-1.2H81v2.4h2.3c.8 0 1.4-.4 1.4-1.2m4.2 1.9c0-3.4 2.6-5.9 6.1-5.9 3.5 0 6.1 2.4 6.1 5.9 0 3.5-2.6 5.9-6.1 5.9-3.5 0-6.1-2.4-6.1-5.9m9.1 0c0-1.9-1.2-3.3-3.1-3.3-1.9 0-3.1 1.4-3.1 3.3 0 1.8 1.2 3.3 3.1 3.3 1.9 0 3.1-1.4 3.1-3.3m12.4 5.7v-4.6h-4.7v4.6h-3V8.1h3v4.3h4.7V8.1h2.9v11.4zm4.6-5.7c0-3.4 2.6-5.9 6.1-5.9 3.5 0 6.1 2.4 6.1 5.9 0 3.5-2.6 5.9-6.1 5.9-3.5 0-6.1-2.4-6.1-5.9m9.2 0c0-1.9-1.2-3.3-3.1-3.3-1.9 0-3.1 1.4-3.1 3.3 0 1.8 1.2 3.3 3.1 3.3 1.9 0 3.1-1.4 3.1-3.3m7.3 5.7l-4.3-11.4h3.3l2.8 8.2 2.8-8.2h3.3l-4.2 11.4zm-79.3 17V25.1H57c3.6 0 6.1 2.1 6.1 5.7 0 3.5-2.6 5.7-6.1 5.7h-4.8zm7.9-5.7c0-1.8-1.1-3.1-3.1-3.1h-1.9v6.2H57c2 0 3.1-1.4 3.1-3.1m4.7 5.7V25.1h8.3v2.6h-5.3v1.8H73V32h-5.2v1.9h5.3v2.6zm9.6-1.6l1.5-2.2c.8.8 2.1 1.5 3.6 1.5 1 0 1.6-.4 1.6-.9 0-1.5-6.4-.3-6.4-4.7 0-1.9 1.6-3.6 4.5-3.6 1.8 0 3.4.5 4.6 1.6l-1.6 2.1c-1-.8-2.2-1.2-3.3-1.2-.8 0-1.2.3-1.2.8 0 1.4 6.4.4 6.4 4.6 0 2.3-1.7 3.8-4.7 3.8-2.2 0-3.8-.7-5-1.8m11.5-9.8h2.9v11.3h-2.9zm4.7 5.7c0-3.6 2.8-5.9 6.1-5.9 2.5 0 4.1 1.3 4.8 2.8L99.1 29c-.4-.7-1.3-1.4-2.4-1.4-1.9 0-3.2 1.4-3.2 3.3s1.3 3.3 3.2 3.3c.8 0 1.7-.3 2.1-.7v-.9h-2.6V30h5.5v4.5c-1.2 1.3-2.9 2.2-5 2.2-3.4 0-6.1-2.3-6.1-5.9m20.9 5.7l-4.8-6.6v6.6h-2.9V25.1h3l4.6 6.3v-6.3h2.9v11.4zM17.7 0H0v44.7h17.8c15 0 24.6-8.8 24.6-22.4C42.4 8.7 32.7 0 17.7 0m-.4 35.7h-8V9.5h8c9.3 0 15.7 3.7 15.7 12.7.1 7.5-5.8 13.5-15.7 13.5"/><path d="M19.1 17H17v10.6h2c4 0 6.4-2.4 6.4-5.4 0-3.7-2.6-5.2-6.3-5.2"/></symbol><symbol viewBox="0 0 651 273" id="logotip"><circle fill="#36B8F2" cx="147.9" cy="154" r="111.2"/><path fill="#58C8F9" d="M159.2 252.1c-55.6 0-100.6-45-100.6-100.6s45-100.6 100.6-100.6c33.2 0 62.7 16.1 81 40.9-20-29.6-53.8-49-92.2-49C86.5 42.8 36.7 92.6 36.7 154s49.8 111.2 111.2 111.2c55.4 0 101.3-40.5 109.8-93.5-9.3 45.9-49.9 80.4-98.5 80.4z"/><path fill="#2885E0" d="M194.5 3.6c69.4 16.9 95.2 69.2 95.2 69.2.7 1.9.9 6.8-5.5 8.8-6.7 2-11-1.7-12.2-3.7-7-14.9-39.8-60.6-96.1-69.3S78.6 35.4 78.6 35.4 125-13.4 194.5 3.6zm-166 101.9s-17 76.6 29.6 122.8 121.9 63.6 190.7 18.3c28.3-19.2 29.8-26.8 31.8-33.1 2.5-8.3 1.2-24.2-16-24.2-17.9 0-22.8 13.3-22.8 13.3s-48.9 74.5-125.3 49.8c-107.3-34.7-88-146.9-88-146.9zm103.6 42.7c-29.4 15.4-51.8.6-66.5 15-10.1 9.9-9.5 28.3-9.5 28.3s-24.6-39.6 8.6-81.7 60.3-33.2 71.5-26c24.6 15.9 22.9 50.3-4.1 64.4zM122 96.1c-4-7.1-9.8-8.7-15.5-8.4-10.9.6-18.9 17.5-18.9 17.5s12.9-21.9 33.2-8.8c4.9 3.2 4 4.7 1.2-.3zm-89.7-3.2s2.8-7.9-.2-13.6C27.7 71.1 16 74.4 5.4 63.7c-9.7-9.8-5.7-24.9 7.1-28.4 5.8-1.6 18.8-1.7 27.3 21.1s-7.5 36.5-7.5 36.5zm-4.6-44.2c-4.2-15.4-17.1-6.9-17.1-6.9 6.9-1.9 12.3-1.3 17.1 6.9z"/><path d="M170 164.7v-58.3h39.9v9h-29.7v15.1h29.1v9h-29.1v16.2h29.7v9H170zm47.7-29.1c0-17.9 13.4-30.1 30.6-30.1 11.8 0 19 6.1 23.4 13.1L263 123c-2.8-4.8-8.4-8.5-14.7-8.5-11.5 0-20.1 8.8-20.1 21.1 0 12.2 8.6 21.1 20.1 21.1 6.3 0 11.9-3.6 14.7-8.5l8.7 4.5c-4.5 7-11.6 13.1-23.4 13.1-17.2 0-30.6-12.3-30.6-30.2zm59.6 0c0-17.4 12.3-30.1 29.8-30.1s29.8 12.8 29.8 30.1c0 17.4-12.3 30.1-29.8 30.1s-29.8-12.7-29.8-30.1zm49.1 0c0-12.1-7.6-21.1-19.3-21.1-11.8 0-19.3 9-19.3 21.1 0 12 7.5 21.1 19.3 21.1 11.7 0 19.3-9.1 19.3-21.1zm42.8 29.1v-58.3h25.6c12.2 0 19 8.4 19 18.3s-6.9 18.3-19 18.3h-15.4v21.8h-10.2zm34.2-40c0-5.6-4.2-9.3-10-9.3h-14V134h14c5.8 0 10-3.7 10-9.3zm18.7 40v-58.3h9.2v58.3h-9.2zm46.8 0v-4.5c-3.1 3.6-8 5.6-13.6 5.6-6.9 0-14.7-4.6-14.7-14 0-9.7 7.8-13.7 14.7-13.7 5.7 0 10.6 1.8 13.6 5.4v-6.3c0-4.9-4-7.9-9.9-7.9-4.7 0-8.8 1.7-12.5 5.3l-3.8-6.4c4.9-4.6 11-6.8 17.7-6.8 9.3 0 17.6 3.9 17.6 15.3v28h-9.1zm0-9.6v-6.4c-2.1-2.9-6-4.4-10-4.4-5.2 0-9 3-9 7.6 0 4.5 3.8 7.5 9 7.5 4 .1 7.9-1.4 10-4.3zm49.6 9.6v-26.4c0-6.6-3.3-8.7-8.5-8.7-4.7 0-8.7 2.8-10.8 5.7v29.4H490v-42.2h9.2v5.8c2.8-3.3 8.2-6.8 14.9-6.8 9.1 0 13.6 4.9 13.6 13.5v29.7h-9.2zm18.4-21.1c0-12.2 8.9-22.1 21.4-22.1 12.7 0 20.8 9.7 20.8 23v2.2h-32.6c.7 6.4 5.5 11.6 13.5 11.6 4.1 0 9-1.7 12-4.6l4.2 6c-4.2 4-10.4 6.1-17.1 6.1-12.8 0-22.2-8.9-22.2-22.2zm21.4-14.6c-7.9 0-11.4 6-11.9 11.2h23.8c-.2-5-3.6-11.2-11.9-11.2zm31.7 25.9v-24.4h-7v-8h7V111h9.2v11.5h8.6v8h-8.6v22.1c0 2.9 1.4 5 4 5 1.7 0 3.4-.7 4.1-1.5l2.2 6.9c-1.7 1.6-4.4 2.7-8.6 2.7-7.1.1-10.9-3.8-10.9-10.8zm51.8 9.8v-4.5c-3.1 3.6-8 5.6-13.6 5.6-6.9 0-14.7-4.6-14.7-14 0-9.7 7.8-13.7 14.7-13.7 5.7 0 10.6 1.8 13.6 5.4v-6.3c0-4.9-4-7.9-9.9-7.9-4.7 0-8.8 1.7-12.5 5.3l-3.8-6.4c4.9-4.6 11-6.8 17.7-6.8 9.3 0 17.6 3.9 17.6 15.3v28h-9.1zm0-9.6v-6.4c-2.1-2.9-6-4.4-10-4.4-5.2 0-9 3-9 7.6 0 4.5 3.8 7.5 9 7.5 4 .1 7.9-1.4 10-4.3z" fill="#165899"/></symbol><symbol viewBox="0 0 68.1 68.1" id="scrollto"><path d="M34.5 67.9h-1c-10.1 0-18.3-8.2-18.3-18.3v-31C15.2 8.5 23.4.3 33.5.3h1c10.1 0 18.3 8.2 18.3 18.3v31c.1 10.1-8.2 18.3-18.3 18.3zm-.9-65.6c-9 0-16.3 7.3-16.3 16.3v31c0 9 7.3 16.3 16.3 16.3h1c9 0 16.3-7.3 16.3-16.3v-31c0-9-7.3-16.3-16.3-16.3h-1z"/><path d="M34.1 25.4c-1.2 0-2.3-1-2.3-2.2v-6.5c0-1.2 1-2.2 2.2-2.2 1.2 0 2.2 1 2.2 2.2v6.5c.1 1.2-.9 2.2-2.1 2.2z"/></symbol></svg>