<?xml version="1.0" encoding="utf-8"?>
<!-- Generator: Adobe Illustrator 19.0.0, SVG Export Plug-In . SVG Version: 6.00 Build 0)  -->
<svg version="1.1" id="Слой_1" xmlns="http://www.w3.org/2000/svg" xmlns:xlink="http://www.w3.org/1999/xlink" x="0px" y="0px"
	 viewBox="0 0 651 273" enable-background="new 0 0 651 273" xml:space="preserve">
<circle fill="#36B8F2" cx="147.9" cy="154" r="111.2"/>
<path fill="#58C8F9" d="M159.2,252.1c-55.6,0-100.6-45-100.6-100.6s45-100.6,100.6-100.6c33.2,0,62.7,16.1,81,40.9
	c-20-29.6-53.8-49-92.2-49C86.5,42.8,36.7,92.6,36.7,154s49.8,111.2,111.2,111.2c55.4,0,101.3-40.5,109.8-93.5
	C248.4,217.6,207.8,252.1,159.2,252.1z"/>
<path fill="#2885E0" d="M194.5,3.6c69.4,16.9,95.2,69.2,95.2,69.2c0.7,1.9,0.9,6.8-5.5,8.8c-6.7,2-11-1.7-12.2-3.7
	C265,63,232.2,17.3,175.9,8.6S78.6,35.4,78.6,35.4S125-13.4,194.5,3.6z M28.5,105.5c0,0-17,76.6,29.6,122.8s121.9,63.6,190.7,18.3
	c28.3-19.2,29.8-26.8,31.8-33.1c2.5-8.3,1.2-24.2-16-24.2c-17.9,0-22.8,13.3-22.8,13.3s-48.9,74.5-125.3,49.8
	C9.2,217.7,28.5,105.5,28.5,105.5z M132.1,148.2c-29.4,15.4-51.8,0.6-66.5,15c-10.1,9.9-9.5,28.3-9.5,28.3s-24.6-39.6,8.6-81.7
	s60.3-33.2,71.5-26C160.8,99.7,159.1,134.1,132.1,148.2z M122,96.1c-4-7.1-9.8-8.7-15.5-8.4c-10.9,0.6-18.9,17.5-18.9,17.5
	s12.9-21.9,33.2-8.8C125.7,99.6,124.8,101.1,122,96.1z M32.3,92.9c0,0,2.8-7.9-0.2-13.6C27.7,71.1,16,74.4,5.4,63.7
	c-9.7-9.8-5.7-24.9,7.1-28.4c5.8-1.6,18.8-1.7,27.3,21.1S32.3,92.9,32.3,92.9z M27.7,48.7c-4.2-15.4-17.1-6.9-17.1-6.9
	C17.5,39.9,22.9,40.5,27.7,48.7z"/>
<g>
	<path fill="#165899" d="M170,164.7v-58.3h39.9v9h-29.7v15.1h29.1v9h-29.1v16.2h29.7v9H170z"/>
	<path fill="#165899" d="M217.7,135.6c0-17.9,13.4-30.1,30.6-30.1c11.8,0,19,6.1,23.4,13.1L263,123c-2.8-4.8-8.4-8.5-14.7-8.5
		c-11.5,0-20.1,8.8-20.1,21.1c0,12.2,8.6,21.1,20.1,21.1c6.3,0,11.9-3.6,14.7-8.5l8.7,4.5c-4.5,7-11.6,13.1-23.4,13.1
		C231.1,165.8,217.7,153.5,217.7,135.6z"/>
	<path fill="#165899" d="M277.3,135.6c0-17.4,12.3-30.1,29.8-30.1s29.8,12.8,29.8,30.1c0,17.4-12.3,30.1-29.8,30.1
		S277.3,153,277.3,135.6z M326.4,135.6c0-12.1-7.6-21.1-19.3-21.1c-11.8,0-19.3,9-19.3,21.1c0,12,7.5,21.1,19.3,21.1
		C318.8,156.7,326.4,147.6,326.4,135.6z"/>
	<path fill="#165899" d="M369.2,164.7v-58.3h25.6c12.2,0,19,8.4,19,18.3c0,9.9-6.9,18.3-19,18.3h-15.4v21.8H369.2z M403.4,124.7
		c0-5.6-4.2-9.3-10-9.3h-14V134h14C399.2,134,403.4,130.3,403.4,124.7z"/>
	<path fill="#165899" d="M422.1,164.7v-58.3h9.2v58.3H422.1z"/>
	<path fill="#165899" d="M468.9,164.7v-4.5c-3.1,3.6-8,5.6-13.6,5.6c-6.9,0-14.7-4.6-14.7-14c0-9.7,7.8-13.7,14.7-13.7
		c5.7,0,10.6,1.8,13.6,5.4v-6.3c0-4.9-4-7.9-9.9-7.9c-4.7,0-8.8,1.7-12.5,5.3l-3.8-6.4c4.9-4.6,11-6.8,17.7-6.8
		c9.3,0,17.6,3.9,17.6,15.3v28H468.9z M468.9,155.1v-6.4c-2.1-2.9-6-4.4-10-4.4c-5.2,0-9,3-9,7.6c0,4.5,3.8,7.5,9,7.5
		C462.9,159.5,466.8,158,468.9,155.1z"/>
	<path fill="#165899" d="M518.5,164.7v-26.4c0-6.6-3.3-8.7-8.5-8.7c-4.7,0-8.7,2.8-10.8,5.7v29.4H490v-42.2h9.2v5.8
		c2.8-3.3,8.2-6.8,14.9-6.8c9.1,0,13.6,4.9,13.6,13.5v29.7H518.5z"/>
	<path fill="#165899" d="M536.9,143.6c0-12.2,8.9-22.1,21.4-22.1c12.7,0,20.8,9.7,20.8,23v2.2h-32.6c0.7,6.4,5.5,11.6,13.5,11.6
		c4.1,0,9-1.7,12-4.6l4.2,6c-4.2,4-10.4,6.1-17.1,6.1C546.3,165.8,536.9,156.9,536.9,143.6z M558.3,129c-7.9,0-11.4,6-11.9,11.2
		h23.8C570,135.2,566.6,129,558.3,129z"/>
	<path fill="#165899" d="M590,154.9v-24.4h-7v-8h7V111h9.2v11.5h8.6v8h-8.6v22.1c0,2.9,1.4,5,4,5c1.7,0,3.4-0.7,4.1-1.5l2.2,6.9
		c-1.7,1.6-4.4,2.7-8.6,2.7C593.8,165.8,590,161.9,590,154.9z"/>
	<path fill="#165899" d="M641.8,164.7v-4.5c-3.1,3.6-8,5.6-13.6,5.6c-6.9,0-14.7-4.6-14.7-14c0-9.7,7.8-13.7,14.7-13.7
		c5.7,0,10.6,1.8,13.6,5.4v-6.3c0-4.9-4-7.9-9.9-7.9c-4.7,0-8.8,1.7-12.5,5.3l-3.8-6.4c4.9-4.6,11-6.8,17.7-6.8
		c9.3,0,17.6,3.9,17.6,15.3v28H641.8z M641.8,155.1v-6.4c-2.1-2.9-6-4.4-10-4.4c-5.2,0-9,3-9,7.6c0,4.5,3.8,7.5,9,7.5
		C635.8,159.5,639.7,158,641.8,155.1z"/>
</g>
</svg>
